<?xml version="1.0" encoding="utf-8"?>
<!-- Generator: Adobe Illustrator 23.0.1, SVG Export Plug-In . SVG Version: 6.00 Build 0)  -->
<svg version="1.1" id="Calque_1" xmlns="http://www.w3.org/2000/svg" xmlns:xlink="http://www.w3.org/1999/xlink" x="0px" y="0px"
	 viewBox="0 0 380.9 298.2" style="enable-background:new 0 0 380.9 298.2;" xml:space="preserve">
<style type="text/css">
	.st0{fill-rule:evenodd;clip-rule:evenodd;fill:#5E3518;}
	.st1{fill-rule:evenodd;clip-rule:evenodd;fill:#7B4720;}
	.st2{fill-rule:evenodd;clip-rule:evenodd;fill:#AC6C48;}
	.st3{fill-rule:evenodd;clip-rule:evenodd;fill:#905833;}
	.st4{fill-rule:evenodd;clip-rule:evenodd;fill-opacity:0.2;}
	.st5{fill-rule:evenodd;clip-rule:evenodd;fill:#6FA124;}
	.st6{fill-rule:evenodd;clip-rule:evenodd;fill:#B3D02A;}
	.st7{fill-rule:evenodd;clip-rule:evenodd;fill:#C6DE5C;}
	.st8{fill-rule:evenodd;clip-rule:evenodd;fill:#AE703E;}
	.st9{fill-rule:evenodd;clip-rule:evenodd;fill:#C07E4C;}
	.st10{fill-rule:evenodd;clip-rule:evenodd;fill:#945E36;}
	.st11{fill-rule:evenodd;clip-rule:evenodd;fill:#7A4D2E;}
	.st12{fill-rule:evenodd;clip-rule:evenodd;fill:#633E25;}
	.st13{fill-rule:evenodd;clip-rule:evenodd;fill:#AE703E;stroke:#945E36;stroke-width:10.7984;}
	.st14{display:none;}
	.st15{display:inline;fill:#F6F6F6;}
	.st16{fill:none;}
	.st17{fill:none;stroke:#FFFFFF;stroke-miterlimit:10;}
	.st18{fill:#FFFFFF;}
	.st19{font-family:'MyriadPro-Regular';}
	.st20{font-size:8px;}
</style>
<g>
	<g id="_814590992">
		<path id="path952" class="st0" d="M51.6,103.1h30.7v22.3c-4.6,0-4-1.4-6.7-1.5c-1.7,0-4.8,1.3-7.1,1.5c-2.5,0.2-5.3-1.6-7.4-1.6
			c-3.9,0-5.6,1.6-9.5,1.6V103.1z"/>
		<path id="path954" class="st1" d="M51.6,103.1h30.7v20.5c-4.6,0-2.5-1.2-5.1-1.2c-1.7,0-6.4,1.4-8.7,1.5c-2.5,0.2-7.3-2.6-9.4-2.6
			c-3.9,0-3.6,2.3-7.5,2.3V103.1z"/>
		<path id="path956" class="st2" d="M68,116.4c3.3,2.7,4.6-8.2,7.8-1.7c0.3,0.7,3.5,2.4,4.2,1.1c0.7-1.4,1.2-1.3,2.4-1.7v-11H51.6
			v11c2.8-0.4,2.5,1.3,4.1,1.3c1.5,0.1,2.3-1.7,3.5-1.8c1.2-0.1,0.8,0.3,1.7,1.1c0.9,0.8,2.5,2.5,3.8,1.9
			C66.1,115.8,66.4,115.1,68,116.4z"/>
		<path id="path958" class="st3" d="M64.8,111.9c-1.3,0.6-2.9-1.1-3.8-1.9s-0.5-1.2-1.7-1.1c-1.2,0.1-1.9,1.9-3.5,1.8
			c-1.6-0.1-1.3-1.7-4.1-1.3v7.1c1.2,0,1.7,0.2,2.4,1.6c0.7,1.4,3.9-0.3,4.2-1c3.2-6.6,4.5,4.4,7.8,1.7c1.6-1.3,1.9-0.6,3.2,0.1
			c1.3,0.7,2.9-1.1,3.8-1.8c0.9-0.8,0.5-1.2,1.7-1.1c1.2,0.1,1.9,1.8,3.5,1.8c1.6-0.1,1.3-1.1,4.1-1.3v-7c-1.2,0-1.7,0.2-2.4,1.6
			c-0.7,1.3-3.9-0.3-4.2-1.1c-3.2-6.5-4.5,4.5-7.8,1.7C66.4,110.5,66.1,111.2,64.8,111.9z"/>
		<path id="path960" class="st1" d="M55.9,114.9c0.7,0,1.4,0.6,1.4,1.4c0,0.7-0.6,1.4-1.4,1.4c-0.8,0-1.4-0.6-1.4-1.4
			C54.6,115.5,55.2,114.9,55.9,114.9z"/>
		<path id="path962" class="st1" d="M53.5,113.3c0.4,0,0.7,0.3,0.7,0.6c0,0.4-0.3,0.6-0.7,0.6c-0.3,0-0.6-0.3-0.6-0.6
			C52.9,113.5,53.2,113.3,53.5,113.3z"/>
		<path id="path964" class="st1" d="M60.5,111.6c0.3,0,0.6,0.3,0.6,0.7s-0.3,0.6-0.6,0.6c-0.4,0-0.7-0.3-0.7-0.6
			S60.1,111.6,60.5,111.6z"/>
		<path id="path966" class="st1" d="M64.2,115.3c0.6,0,1.1,0.5,1.1,1.1c0,0.6-0.5,1.1-1.1,1.1c-0.6,0-1.1-0.5-1.1-1.1
			C63.1,115.7,63.6,115.3,64.2,115.3z"/>
		<path id="path968" class="st1" d="M69.9,115.8c0.7,0,1.2,0.5,1.2,1.2c0,0.7-0.5,1.2-1.2,1.2c-0.7,0-1.2-0.5-1.2-1.2
			C68.6,116.3,69.2,115.8,69.9,115.8z"/>
		<path id="path970" class="st1" d="M68.7,113.6c0.3,0,0.5,0.2,0.5,0.5s-0.2,0.5-0.5,0.5s-0.5-0.2-0.5-0.5S68.4,113.6,68.7,113.6z"
			/>
		<path id="path972" class="st1" d="M75,113.2c0.4,0,0.7,0.3,0.7,0.6c0,0.4-0.3,0.7-0.7,0.7s-0.7-0.3-0.7-0.7
			C74.3,113.4,74.6,113.2,75,113.2z"/>
		<path id="path974" class="st1" d="M72.5,112.2c0.5,0,0.9,0.5,0.9,1c0,0.5-0.4,1-0.9,1c-0.6,0-1-0.5-1-1
			C71.5,112.6,72,112.2,72.5,112.2z"/>
		<path id="path976" class="st1" d="M78.4,115c0.4,0,0.8,0.4,0.8,0.8c0,0.5-0.4,0.8-0.8,0.8c-0.5,0-0.8-0.4-0.8-0.8
			C77.5,115.4,77.9,115,78.4,115z"/>
		<path id="path978" class="st1" d="M79.4,113.4c0.2,0,0.4,0.2,0.4,0.4c0,0.2-0.2,0.4-0.4,0.4c-0.2,0-0.4-0.2-0.4-0.4
			C79,113.6,79.1,113.4,79.4,113.4z"/>
		<path id="path980" class="st3" d="M52.9,118.6c0.3,0,0.5,0.3,0.5,0.6c0,0.3-0.2,0.5-0.5,0.5s-0.6-0.3-0.6-0.5
			C52.4,118.9,52.6,118.6,52.9,118.6z"/>
		<path id="path982" class="st3" d="M56.4,119.5c0.3,0,0.6,0.3,0.6,0.6c0,0.3-0.3,0.6-0.6,0.6c-0.4,0-0.6-0.3-0.6-0.6
			C55.7,119.8,56,119.5,56.4,119.5z"/>
		<path id="path984" class="st3" d="M59.6,116.6c0.4,0,0.6,0.3,0.6,0.6c0,0.3-0.3,0.6-0.6,0.6s-0.6-0.3-0.6-0.6
			C59,116.8,59.2,116.6,59.6,116.6z"/>
		<path id="path986" class="st3" d="M63.8,120.7c0.2,0,0.4,0.2,0.4,0.4s-0.2,0.4-0.4,0.4c-0.2,0-0.4-0.2-0.4-0.4
			S63.6,120.7,63.8,120.7z"/>
		<path id="path988" class="st3" d="M67.8,119.2c0.2,0,0.3,0.1,0.3,0.3c0,0.2-0.2,0.3-0.3,0.3c-0.2,0-0.4-0.2-0.4-0.3
			C67.4,119.3,67.5,119.2,67.8,119.2z"/>
		<path id="path990" class="st3" d="M72.9,119c0.3,0,0.5,0.2,0.5,0.4s-0.2,0.5-0.5,0.5c-0.2,0-0.4-0.2-0.4-0.5S72.7,119,72.9,119z"
			/>
		<path id="path992" class="st3" d="M75.5,117.7c0.5,0,0.9,0.4,0.9,0.9s-0.4,0.9-0.9,0.9s-0.9-0.4-0.9-0.9S75.1,117.7,75.5,117.7z"
			/>
		<path id="path994" class="st3" d="M80.1,118.6c0.3,0,0.5,0.2,0.5,0.5c0,0.3-0.3,0.5-0.5,0.5c-0.3,0-0.5-0.3-0.5-0.5
			C79.6,118.8,79.8,118.6,80.1,118.6z"/>
		<path id="path996" class="st3" d="M53.9,106.9c0.4,0,0.7,0.3,0.7,0.6s-0.3,0.7-0.7,0.7c-0.3,0-0.6-0.3-0.6-0.7
			S53.6,106.9,53.9,106.9z"/>
		<path id="path998" class="st3" d="M58.7,105.3c0.2,0,0.3,0.2,0.3,0.4c0,0.2-0.1,0.3-0.3,0.3c-0.2,0-0.3-0.2-0.3-0.3
			C58.4,105.5,58.5,105.3,58.7,105.3z"/>
		<path id="path1000" class="st3" d="M63.1,108.2c0.6,0,1.1,0.5,1.1,1.1c0,0.6-0.5,1.1-1.1,1.1c-0.6,0-1.1-0.5-1.1-1.1
			C62.1,108.7,62.6,108.2,63.1,108.2z"/>
		<path id="path1002" class="st3" d="M67.7,107.8c0.3,0,0.4,0.2,0.4,0.4c0,0.3-0.2,0.4-0.4,0.4c-0.2,0-0.4-0.2-0.4-0.4
			C67.3,108.1,67.5,107.8,67.7,107.8z"/>
		<path id="path1004" class="st3" d="M68.5,105.1c0.1,0,0.2,0.1,0.2,0.2c0,0.1-0.1,0.2-0.2,0.2s-0.2-0.1-0.2-0.2
			C68.3,105.2,68.4,105.1,68.5,105.1z"/>
		<path id="path1006" class="st3" d="M79.5,108.5c0.4,0,0.6,0.3,0.6,0.6c0,0.4-0.3,0.6-0.6,0.6c-0.3,0-0.6-0.3-0.6-0.6
			C78.9,108.7,79.2,108.5,79.5,108.5z"/>
		<path id="path1008" class="st3" d="M76.6,107.9c0.2,0,0.3,0.2,0.3,0.3s-0.2,0.3-0.3,0.3s-0.3-0.2-0.3-0.3S76.4,107.9,76.6,107.9z"
			/>
		<path id="path1010" class="st3" d="M69.5,109.3c0.5,0,1,0.5,1,1c0,0.6-0.5,1.1-1,1.1c-0.6,0-1.1-0.5-1.1-1.1
			C68.5,109.7,69,109.3,69.5,109.3z"/>
		<path id="path1012" class="st3" d="M79.8,105.4c0.3,0,0.5,0.2,0.5,0.5c0,0.3-0.3,0.5-0.5,0.5s-0.5-0.2-0.5-0.5
			C79.3,105.6,79.5,105.4,79.8,105.4z"/>
		<path id="path1014" class="st2" d="M55.9,111.9c0.3,0,0.5,0.2,0.5,0.4c0,0.3-0.2,0.5-0.5,0.5c-0.2,0-0.4-0.2-0.4-0.5
			C55.5,112,55.7,111.9,55.9,111.9z"/>
		<path id="path1016" class="st2" d="M60.3,109.9c0.1,0,0.2,0.1,0.2,0.3c0,0.1-0.1,0.3-0.2,0.3c-0.2,0-0.3-0.2-0.3-0.3
			C60,110,60.1,109.9,60.3,109.9z"/>
		<path id="path1018" class="st2" d="M65.6,111.9c0.3,0,0.6,0.3,0.6,0.6c0,0.3-0.3,0.6-0.6,0.6s-0.6-0.3-0.6-0.6
			C65,112.2,65.3,111.9,65.6,111.9z"/>
		<path id="path1020" class="st2" d="M73.3,110.2c0.2,0,0.3,0.2,0.3,0.4c0,0.2-0.2,0.3-0.3,0.3c-0.2,0-0.3-0.2-0.3-0.3
			C73,110.3,73.1,110.2,73.3,110.2z"/>
		<path id="path1022" class="st2" d="M80.8,111.3c0.2,0,0.3,0.2,0.3,0.3c0,0.2-0.1,0.4-0.3,0.4c-0.2,0-0.3-0.2-0.3-0.4
			C80.5,111.4,80.7,111.3,80.8,111.3z"/>
		<path id="path1024" class="st4" d="M51.6,103.9h30.7v6c0,0.7-0.6,1.3-1.3,1.3c-0.3,0-0.5-0.1-0.7-0.2c-0.3,0.5-0.8,0.7-1.4,0.7
			c-0.7,0-1.4-0.4-1.6-1c-0.3,0.7-1.1,1.3-1.9,1.3c-1.1,0-1.9-0.8-2-1.8c-0.2,1.2-1.1,2-2.3,2c-0.8,0-1.5-0.4-1.9-1.1
			c-0.3,0.4-0.8,0.6-1.3,0.6c-0.8,0-1.4-0.5-1.7-1.1c-0.3,0.6-0.9,1.1-1.7,1.1c-0.7,0-1.3-0.4-1.6-1c-0.3,0.7-1.1,1.3-1.9,1.3
			c-1.1,0-1.9-0.8-2-1.8c-0.1,1.2-1.1,2-2.3,2c-0.8,0-1.5-0.4-1.9-1.1c-0.4,0.4-0.8,0.6-1.4,0.6c-1,0-1.8-0.8-1.8-1.8V103.9z"/>
		<path id="path1026" class="st5" d="M51.6,103.1h30.7v6c0,0.7-0.6,1.3-1.3,1.3c-0.3,0-0.5-0.1-0.7-0.2c-0.3,0.4-0.8,0.7-1.4,0.7
			c-0.7,0-1.4-0.4-1.6-1.1c-0.3,0.8-1.1,1.3-1.9,1.3c-1.1,0-1.9-0.8-2-1.8c-0.2,1.2-1.1,2-2.3,2c-0.8,0-1.5-0.4-1.9-1.1
			c-0.3,0.4-0.8,0.6-1.3,0.6c-0.8,0-1.4-0.5-1.7-1.2c-0.3,0.7-0.9,1.2-1.7,1.2c-0.7,0-1.3-0.4-1.6-1.1c-0.3,0.8-1.1,1.3-1.9,1.3
			c-1.1,0-1.9-0.8-2-1.8c-0.1,1.2-1.1,2-2.3,2c-0.8,0-1.5-0.4-1.9-1.1c-0.4,0.4-0.8,0.6-1.4,0.6c-1,0-1.8-0.8-1.8-1.8V103.1z"/>
		<path id="path1028" class="st6" d="M75.8,103.1H51.6v4.7c0,0.6,0.4,1,1,1c0.2,0,0.4-0.1,0.6-0.2c0.3,0.4,0.6,0.6,1.1,0.6
			c0.6,0,1.1-0.3,1.3-0.8c0.2,0.6,0.8,1,1.5,1c0.8,0,1.5-0.6,1.6-1.4c0.1,0.9,0.8,1.6,1.7,1.6c0.6,0,1.2-0.3,1.5-0.8
			c0.3,0.3,0.6,0.5,1.1,0.5c0.6,0,1.1-0.4,1.3-0.9c0.2,0.5,0.7,0.9,1.3,0.9c0.6,0,1.1-0.3,1.3-0.8c0.3,0.6,0.8,1,1.5,1
			c0.8,0,1.5-0.6,1.6-1.4c0.1,0.9,0.9,1.6,1.8,1.6c0.6,0,1.2-0.3,1.5-0.8c0.3,0.3,0.6,0.5,1.1,0.5c0.8,0,1.4-0.6,1.4-1.4
			c0,0.8,0.6,1.4,1.4,1.4c0.4,0,0.8-0.2,1.1-0.5c0.3,0.5,1.3,1,2.1,0.9c1.4-0.3,1.5-0.8,2-1.8v-4.7H75.8z"/>
		<rect id="rect1030" x="51.6" y="103.1" class="st7" width="30.7" height="1.9"/>
		<circle id="circle1032" class="st1" cx="57.8" cy="122.8" r="0.9">
		</circle>
		<circle id="circle1034" class="st1" cx="60.8" cy="122.7" r="0.5">
		</circle>
		<circle id="circle1036" class="st1" cx="77.6" cy="123" r="0.4">
		</circle>
		<circle id="circle1038" class="st1" cx="80" cy="124.2" r="0.5">
		</circle>
		<circle id="circle1040" class="st1" cx="67.5" cy="124.3" r="0.3">
		</circle>
	</g>
	<g id="_814605168">
		<path id="path1043" class="st1" d="M51.9,103.1H24.6c0,0.1-1.7,2.8-0.5,4.5c0.5,0.7-1.2,1.5-1.7,2.9c0.5,4.5,3.6,5.5,8.8,5.6
			c2.6,0,1.8,3.4,4.9,4.8c1.8,0.8,5.4,3.2,7.8,3.8c3.7,0.8,5.9,0.7,8,0.7V103.1z"/>
		<path id="path1045" class="st3" d="M51.9,103.1H24.6c0,0.1-1.7,2.8-0.5,4.5c0.5,0.7-1.2,1.5-1.7,2.9c0.5,4.5,3.6,5.5,8.8,5.6
			c2.1,0,2,2.2,3.5,3.8c0.3-0.7,0.7-1.1,1.9-0.7c3,1.1,2.7-1.7,4.2-2.5c1.5-0.7,4.7,0.2,5.1,0.7s1.9,1.7,2.6,1.1
			c0.6-0.5,2.9-1.8,3.4-2V103.1z"/>
		<path id="path1047" class="st2" d="M51.9,103.1H24.6c0,0.1-1.7,2.8-0.5,4.5c0.5,0.7-1.2,1.5-1.7,2.9c0.3,2.9,1.7,4.4,4.1,5
			c0.5-0.9,1.1-1.8,1.7-2.8c2.6-3.7,5.2,3,8.5-1.4c3.3-4.4,6,1.4,8.3,1.6c4,0.4,2.7-2.7,6.8-2.7V103.1z"/>
		<g id="g1049">
			<path id="path1051" class="st4" d="M51.9,103.9l-28.1,0.2v7.4c0.3,0.1,0.5,0.2,0.8,0.2c0.7,0,1.3-0.4,1.6-1
				c0.3,0.7,1.1,1.3,1.9,1.3c1.1,0,1.9-0.8,2-1.8c0.1,1.2,1.1,2,2.3,2c0.8,0,1.5-0.4,1.9-1.1c0.3,0.4,0.8,0.6,1.4,0.6
				c0.7,0,1.4-0.5,1.7-1.1c0.3,0.6,0.9,1.1,1.6,1.1c0.7,0,1.4-0.4,1.6-1c0.3,0.7,1.1,1.3,1.9,1.3c1.1,0,1.9-0.8,2-1.8
				c0.2,1.2,1.1,2,2.3,2c0.8,0,1.5-0.4,1.9-1.1c0.3,0.4,0.8,0.6,1.3,0.6c1,0,1.8-0.8,1.8-1.8V103.9z"/>
			<path id="path1053" class="st5" d="M51.9,103.1H23.6c-1.2,0.8-1.6,4-2.4,6c0,0.7,0.6,1.3,1.3,1.3c0.3,0,0.5-0.1,0.7-0.2
				c0.3,0.4,0.8,0.7,1.5,0.7c0.7,0,1.3-0.4,1.6-1.1c0.3,0.8,1.1,1.3,1.9,1.3c1.1,0,1.9-0.8,2-1.8c0.1,1.2,1.1,2,2.3,2
				c0.8,0,1.5-0.4,1.9-1.1c0.3,0.4,0.8,0.6,1.4,0.6c0.7,0,1.4-0.5,1.7-1.2c0.3,0.7,0.9,1.2,1.6,1.2c0.7,0,1.4-0.4,1.6-1.1
				c0.3,0.8,1.1,1.3,1.9,1.3c1.1,0,1.9-0.8,2-1.8c0.2,1.2,1.1,2,2.3,2c0.8,0,1.5-0.4,1.9-1.1c0.3,0.4,0.8,0.6,1.3,0.6
				c1,0,1.8-0.8,1.8-1.8V103.1z"/>
			<path id="path1055" class="st6" d="M27.8,103.1h24.1v4.7c0,0.6-0.4,1-1,1c-0.2,0-0.4-0.1-0.5-0.2c-0.3,0.4-0.7,0.6-1.2,0.6
				c-0.6,0-1.1-0.3-1.3-0.8c-0.3,0.6-0.8,1-1.5,1c-0.8,0-1.5-0.6-1.6-1.4c-0.1,0.9-0.9,1.6-1.8,1.6c-0.6,0-1.2-0.3-1.5-0.8
				c-0.3,0.3-0.6,0.5-1.1,0.5c-0.6,0-1.1-0.4-1.3-0.9c-0.2,0.5-0.7,0.9-1.3,0.9c-0.5,0-1.1-0.3-1.3-0.8c-0.3,0.6-0.8,1-1.5,1
				c-0.8,0-1.5-0.6-1.6-1.4c-0.1,0.9-0.8,1.6-1.8,1.6c-0.6,0-1.2-0.3-1.5-0.8c-0.3,0.3-0.6,0.5-1.1,0.5c-0.8,0-1.4-0.6-1.4-1.4
				c0,0.8-0.6,1.4-1.4,1.4c-0.4,0-0.8-0.2-1.1-0.5c-0.3,0.5-0.7,0.8-1.5,0.8c-0.8,0-0.8-0.5-0.9-1.4c-0.1,0.5-0.8,1.6-1.7,1
				c0-2.4,0-6.1,2.4-6.1H27.8z"/>
			<path id="path1057" class="st7" d="M51.9,105H27.8h-4h-0.3c-0.6,0-1,0.2-1.3,0.6c-0.7,0.7-0.9,2.1-1,3.4c0,0.1,0,0.1-0.1,0.2
				c0-2.4,0.1-6,2.4-6h28.4v0.8V105z"/>
		</g>
		<path id="path1059" class="st0" d="M51.9,123.6c-2.1,0.1-4.4,0.1-8-0.7c-1.5-0.3-4.6-1.1-7.2-1.7c1.9,1,5,3,7.2,3.5
			c3.7,0.8,5.9,0.7,8,0.7V123.6z"/>
		<circle id="circle1061" class="st1" cx="42.4" cy="115.1" r="0.9">
		</circle>
		<circle id="circle1063" class="st1" cx="49.9" cy="114.6" r="1.2">
		</circle>
		<circle id="circle1065" class="st1" cx="36.9" cy="116.5" r="0.5">
		</circle>
		<circle id="circle1067" class="st1" cx="40.3" cy="112.3" r="0.7">
		</circle>
		<circle id="circle1069" class="st3" cx="41.3" cy="118.2" r="0.9">
		</circle>
		<circle id="circle1071" class="st3" cx="43.7" cy="118.4" r="0.5">
		</circle>
		<circle id="circle1073" class="st3" cx="50.9" cy="119" r="0.5">
		</circle>
		<circle id="circle1075" class="st3" cx="47.1" cy="120.2" r="0.5">
		</circle>
		<circle id="circle1077" class="st3" cx="37.6" cy="120.4" r="0.4">
		</circle>
	</g>
	<g id="_814610320">
		<path id="path1080" class="st1" d="M82.1,103.1h27.4c0,0.1,1.7,2.8,0.5,4.5c-0.5,0.7,1.2,1.5,1.7,2.9c-0.5,4.5-3.7,5.5-8.8,5.6
			c-2.6,0-1.8,3.4-4.9,4.8c-1.8,0.8-5.4,3.2-7.8,3.8c-3.7,0.8-5.9,0.7-8.1,0.7V103.1z"/>
		<path id="path1082" class="st3" d="M82.1,103.1h27.4c0,0.1,1.7,2.8,0.5,4.5c-0.5,0.7,1.2,1.5,1.7,2.9c-0.5,4.5-3.7,5.5-8.8,5.6
			c-2.1,0-2,2.2-3.5,3.8c-0.2-0.7-0.7-1.1-1.8-0.7c-3,1.1-2.7-1.7-4.2-2.5c-1.5-0.7-4.7,0.2-5.1,0.7s-1.9,1.7-2.6,1.1
			c-0.6-0.5-2.9-1.8-3.5-2V103.1z"/>
		<path id="path1084" class="st2" d="M82.1,103.1h27.4c0,0.1,1.7,2.8,0.5,4.5c-0.5,0.7,1.2,1.5,1.7,2.9c-0.3,2.9-1.7,4.4-4.1,5
			c-0.5-0.9-1.1-1.8-1.7-2.8c-2.6-3.7-5.2,3-8.5-1.4c-3.3-4.4-6,1.4-8.3,1.6c-4,0.4-2.7-2.7-6.8-2.7L82.1,103.1z"/>
		<g id="g1086">
			<path id="path1088" class="st4" d="M82.1,103.9l28.1,0.2v7.4c-0.3,0.1-0.5,0.2-0.8,0.2c-0.7,0-1.3-0.4-1.6-1
				c-0.3,0.7-1.1,1.3-1.9,1.3c-1.1,0-1.9-0.8-2-1.8c-0.1,1.2-1.1,2-2.3,2c-0.8,0-1.5-0.4-1.9-1.1c-0.3,0.4-0.8,0.6-1.4,0.6
				c-0.7,0-1.4-0.5-1.7-1.1c-0.3,0.6-0.9,1.1-1.6,1.1s-1.4-0.4-1.6-1c-0.3,0.7-1.1,1.3-1.9,1.3c-1.1,0-1.9-0.8-2-1.8
				c-0.1,1.2-1.1,2-2.2,2c-0.8,0-1.5-0.4-1.9-1.1c-0.3,0.4-0.8,0.6-1.3,0.6c-1,0-1.8-0.8-1.8-1.8V103.9z"/>
			<path id="path1090" class="st5" d="M82.1,103.1h28.4c1.2,0.8,1.6,4,2.4,6c0,0.7-0.6,1.3-1.3,1.3c-0.3,0-0.5-0.1-0.7-0.2
				c-0.3,0.4-0.9,0.7-1.5,0.7c-0.7,0-1.3-0.4-1.6-1.1c-0.3,0.8-1.1,1.3-1.9,1.3c-1.1,0-1.9-0.8-2-1.8c-0.1,1.2-1.1,2-2.3,2
				c-0.8,0-1.5-0.4-1.9-1.1c-0.3,0.4-0.8,0.6-1.4,0.6c-0.7,0-1.4-0.5-1.7-1.2c-0.3,0.7-0.9,1.2-1.6,1.2s-1.4-0.4-1.6-1.1
				c-0.3,0.8-1.1,1.3-1.9,1.3c-1.1,0-1.9-0.8-2-1.8c-0.1,1.2-1.1,2-2.2,2c-0.8,0-1.5-0.4-1.9-1.1c-0.3,0.4-0.8,0.6-1.3,0.6
				c-1,0-1.8-0.8-1.8-1.8V103.1z"/>
			<path id="path1092" class="st6" d="M106.3,103.1H82.1v4.7c0,0.6,0.5,1,1.1,1c0.2,0,0.4-0.1,0.5-0.2c0.3,0.4,0.7,0.6,1.2,0.6
				c0.6,0,1.1-0.3,1.3-0.8c0.3,0.6,0.8,1,1.5,1c0.8,0,1.5-0.6,1.6-1.4c0.1,0.9,0.8,1.6,1.8,1.6c0.6,0,1.2-0.3,1.5-0.8
				c0.2,0.3,0.6,0.5,1.1,0.5c0.6,0,1.1-0.4,1.3-0.9c0.2,0.5,0.7,0.9,1.3,0.9c0.5,0,1.1-0.3,1.3-0.8c0.3,0.6,0.8,1,1.5,1
				c0.8,0,1.5-0.6,1.6-1.4c0.1,0.9,0.8,1.6,1.8,1.6c0.6,0,1.2-0.3,1.5-0.8c0.3,0.3,0.6,0.5,1.1,0.5c0.8,0,1.4-0.6,1.4-1.4
				c0,0.8,0.6,1.4,1.4,1.4c0.4,0,0.8-0.2,1.1-0.5c0.3,0.5,0.7,0.8,1.5,0.8c0.8,0,0.8-0.5,0.9-1.4c0.1,0.5,0.8,1.6,1.7,1
				c0-2.4,0-6.1-2.4-6.1H106.3z"/>
			<path id="path1094" class="st7" d="M82.1,105h24.2h4h0.3c0.6,0,1,0.2,1.3,0.6c0.7,0.7,0.9,2.1,1,3.4c0,0.1,0,0.1,0.1,0.2
				c0-2.4-0.1-6-2.4-6H82.1v0.8V105z"/>
		</g>
		<path id="path1096" class="st0" d="M82.1,123.6c2.2,0.1,4.4,0.1,8.1-0.7c1.5-0.3,4.6-1.1,7.2-1.7c-1.9,1-5,3-7.2,3.5
			c-3.7,0.8-5.9,0.7-8.1,0.7V123.6z"/>
		<circle id="circle1098" class="st1" cx="91.7" cy="115.1" r="0.9">
		</circle>
		<circle id="circle1100" class="st1" cx="84.2" cy="114.6" r="1.2">
		</circle>
		<circle id="circle1102" class="st1" cx="97.3" cy="116.5" r="0.5">
		</circle>
		<circle id="circle1104" class="st1" cx="93.8" cy="112.3" r="0.7">
		</circle>
		<circle id="circle1106" class="st3" cx="92.8" cy="118.2" r="0.9">
		</circle>
		<circle id="circle1108" class="st3" cx="90.4" cy="118.4" r="0.5">
		</circle>
		<circle id="circle1110" class="st3" cx="83.2" cy="119" r="0.5">
		</circle>
		<circle id="circle1112" class="st3" cx="87" cy="120.2" r="0.5">
		</circle>
		<circle id="circle1114" class="st3" cx="96.5" cy="120.4" r="0.4">
		</circle>
	</g>
	<g id="_926923952">
		<g id="g1345">
			<polygon id="polygon1347" class="st8" points="72.6,103.3 64.5,103.3 64.5,36.6 72.6,36.6 			"/>
			<polygon id="polygon1349" class="st9" points="66.1,103.3 64.5,103.3 64.5,36.6 66.1,36.6 			"/>
			<polygon id="polygon1351" class="st10" points="72.6,103.3 71,103.3 71,36.6 72.6,36.6 			"/>
			<polygon id="polygon1353" class="st10" points="71,103.3 71,74 68.8,81.5 68.6,70.1 66.1,81.5 66.1,103.3 			"/>
			<polygon id="polygon1355" class="st8" points="65,71.7 64.5,73.6 64.5,103.3 66.1,103.3 66.1,81.5 			"/>
			<polygon id="polygon1357" class="st11" points="72.6,103.3 72.6,79.4 71.8,81 71,74 71,103.3 			"/>
			<polygon id="polygon1359" class="st10" points="66.1,95.9 64.5,90.5 64.5,103.3 66.1,103.3 66.1,92.2 			"/>
			<polygon id="polygon1361" class="st11" points="71,103.3 71,90.1 69.9,86.1 68.8,95.7 66.3,84.3 66.1,92.2 66.1,103.3 			"/>
			<polygon id="polygon1363" class="st12" points="72.6,103.3 72.6,89.1 72.2,95 71,90.1 71,103.3 			"/>
		</g>
		<polygon id="polygon1365" class="st13" points="92.8,65 86.5,65.4 92.8,67.1 92.8,81.2 44.3,81.2 44.3,72.9 49.3,71.5 44.3,71 
			44.3,48.7 52.2,48 44.3,46.1 44.3,36.6 92.8,36.6 		"/>
		<polygon id="polygon1367" class="st9" points="59.9,41.7 76.3,43.3 81,41.7 		"/>
		<polygon id="polygon1369" class="st9" points="67.4,53.6 82.2,55 86.4,53.3 		"/>
		<polygon id="polygon1371" class="st9" points="51.4,63.3 76,61.7 47.9,62.4 		"/>
		<polygon id="polygon1373" class="st9" points="67.4,72.2 77.9,74.3 84,73.1 		"/>
	</g>
</g>
<g id="Background" class="st14">
	<rect x="-197.3" y="-154" class="st15" width="800" height="800"/>
	<rect x="-197.4" y="-153.5" class="st15" width="800" height="800"/>
</g>
<rect x="84.8" y="47.8" class="st16" width="9.1" height="0.9"/>
<line class="st17" x1="52.9" y1="56.8" x2="80.8" y2="56.8"/>
<line class="st17" x1="66.8" y1="44.2" x2="66.8" y2="56.8"/>
<polyline class="st17" points="64.2,47.8 66.8,44.3 69.4,47.8 "/>
<line class="st17" x1="66.8" y1="69.3" x2="66.8" y2="56.8"/>
<polyline class="st17" points="64.2,65.8 66.8,69.3 69.4,65.8 "/>
<polyline class="st17" points="77.8,54.2 81.3,56.8 77.8,59.4 "/>
<polyline class="st17" points="56.4,54.2 52.9,56.8 56.4,59.4 "/>
<line class="st17" x1="87.3" y1="66.8" x2="96.1" y2="66.8"/>
<line class="st17" x1="95.5" y1="59.3" x2="95.5" y2="66.8"/>
<polyline class="st17" points="89.4,65.3 87.3,66.8 89.4,68.3 "/>
<rect x="56.7" y="36.4" class="st16" width="19.3" height="5.8"/>
<text transform="matrix(1 0 0 1 56.7099 42.1243)" class="st18 st19 st20">Jump</text>
<rect x="58.7" y="69.3" class="st16" width="16.2" height="5.8"/>
<text transform="matrix(1 0 0 1 58.7239 74.9532)" class="st18 st19 st20">Stop</text>
<rect x="81.9" y="69.5" class="st16" width="16.2" height="5.8"/>
<text transform="matrix(1 0 0 1 81.8979 75.1848)" class="st18 st19 st20">Die</text>
<rect x="76.8" y="47.2" class="st16" width="19.3" height="5.8"/>
<text transform="matrix(1 0 0 1 76.772 52.8897)" class="st18 st19 st20">Right</text>
<rect x="40.3" y="47.2" class="st16" width="19.3" height="5.8"/>
<text transform="matrix(1 0 0 1 40.3265 52.8897)" class="st18 st19 st20">Left</text>
</svg>
